<svg xmlns="http://www.w3.org/2000/svg" viewBox="0 0 64 64" width="64" height="64">
  <defs>
    <linearGradient id="fav-grad" x1="0%" y1="0%" x2="100%" y2="100%">
      <stop offset="0%" stop-color="#4F46E5"/>
      <stop offset="100%" stop-color="#FF5A5F"/>
    </linearGradient>
  </defs>
  <rect width="64" height="64" rx="14" fill="#0F172A"/>
  <!-- Open Book Page Outline -->
  <path d="M 12,44 C 22,40 32,44 32,44 C 32,44 42,40 52,44 L 52,24 C 42,20 32,24 32,24 C 32,24 22,20 12,24 Z" fill="none" stroke="url(#fav-grad)" stroke-width="3" stroke-linejoin="round"/>
  <path d="M 32,24 L 32,44" stroke="url(#fav-grad)" stroke-width="3"/>
  <!-- Ink stroke under book -->
  <path d="M 8,50 C 20,46 44,54 56,48" fill="none" stroke="#F59E0B" stroke-width="4" stroke-linecap="round"/>
  <!-- Pen Nib -->
  <path d="M 32,10 L 38,24 L 32,36 L 26,24 Z" fill="url(#fav-grad)"/>
  <line x1="32" y1="18" x2="32" y2="34" stroke="#FAFAFA" stroke-width="2"/>
  <circle cx="32" cy="18" r="1.5" fill="#FAFAFA"/>
</svg>
